<mxfile host="Electron" modified="2025-02-03T10:54:25.467Z" agent="Mozilla/5.0 (Windows NT 10.0; Win64; x64) AppleWebKit/537.36 (KHTML, like Gecko) draw.io/24.4.13 Chrome/124.0.6367.207 Electron/30.0.6 Safari/537.36" etag="mfZwvi9we-U2QhOK3Dma" version="24.4.13" type="device">
  <diagram name="第 1 页" id="qEaQDoqXS2WyAkNZ_aP-">
    <mxGraphModel dx="1436" dy="968" grid="0" gridSize="10" guides="1" tooltips="1" connect="1" arrows="1" fold="1" page="1" pageScale="1" pageWidth="1169" pageHeight="827" math="0" shadow="0">
      <root>
        <mxCell id="0" />
        <mxCell id="1" parent="0" />
        <mxCell id="Cl5lHqft_ITPor9AgNO_-1" value="" style="rounded=1;whiteSpace=wrap;html=1;" vertex="1" parent="1">
          <mxGeometry x="443" y="84" width="302" height="137" as="geometry" />
        </mxCell>
        <mxCell id="Cl5lHqft_ITPor9AgNO_-2" value="&lt;font style=&quot;font-size: 21px;&quot;&gt;App System&lt;/font&gt;" style="text;html=1;align=center;verticalAlign=middle;whiteSpace=wrap;rounded=0;" vertex="1" parent="1">
          <mxGeometry x="523" y="95" width="143" height="30" as="geometry" />
        </mxCell>
        <mxCell id="Cl5lHqft_ITPor9AgNO_-4" value="" style="shape=actor;whiteSpace=wrap;html=1;" vertex="1" parent="1">
          <mxGeometry x="475" y="135" width="44" height="60" as="geometry" />
        </mxCell>
        <mxCell id="Cl5lHqft_ITPor9AgNO_-5" value="" style="shape=datastore;whiteSpace=wrap;html=1;" vertex="1" parent="1">
          <mxGeometry x="666" y="141" width="60" height="60" as="geometry" />
        </mxCell>
        <mxCell id="Cl5lHqft_ITPor9AgNO_-12" value="" style="html=1;points=[[0,0,0,0,5],[0,1,0,0,-5],[1,0,0,0,5],[1,1,0,0,-5]];perimeter=orthogonalPerimeter;outlineConnect=0;targetShapes=umlLifeline;portConstraint=eastwest;newEdgeStyle={&quot;curved&quot;:0,&quot;rounded&quot;:0};" vertex="1" parent="1">
          <mxGeometry x="571" y="142" width="10" height="58" as="geometry" />
        </mxCell>
        <mxCell id="Cl5lHqft_ITPor9AgNO_-13" value="&lt;span style=&quot;font-size: 7px;&quot;&gt;keywords&lt;/span&gt;" style="html=1;verticalAlign=bottom;endArrow=block;curved=0;rounded=0;" edge="1" target="Cl5lHqft_ITPor9AgNO_-12" parent="1">
          <mxGeometry x="-0.0046" relative="1" as="geometry">
            <mxPoint x="523" y="149" as="sourcePoint" />
            <mxPoint as="offset" />
          </mxGeometry>
        </mxCell>
        <mxCell id="Cl5lHqft_ITPor9AgNO_-14" value="&lt;font style=&quot;font-size: 7px;&quot;&gt;info&lt;/font&gt;" style="html=1;verticalAlign=bottom;endArrow=open;dashed=1;endSize=8;curved=0;rounded=0;exitX=0;exitY=1;exitDx=0;exitDy=-5;" edge="1" source="Cl5lHqft_ITPor9AgNO_-12" parent="1">
          <mxGeometry relative="1" as="geometry">
            <mxPoint x="523.5" y="196" as="targetPoint" />
          </mxGeometry>
        </mxCell>
        <mxCell id="Cl5lHqft_ITPor9AgNO_-16" value="" style="html=1;points=[[0,0,0,0,5],[0,1,0,0,-5],[1,0,0,0,5],[1,1,0,0,-5]];perimeter=orthogonalPerimeter;outlineConnect=0;targetShapes=umlLifeline;portConstraint=eastwest;newEdgeStyle={&quot;curved&quot;:0,&quot;rounded&quot;:0};" vertex="1" parent="1">
          <mxGeometry x="601" y="142" width="10" height="58" as="geometry" />
        </mxCell>
        <mxCell id="Cl5lHqft_ITPor9AgNO_-17" value="&lt;span style=&quot;font-size: 7px;&quot;&gt;info&lt;/span&gt;" style="html=1;verticalAlign=bottom;endArrow=block;curved=0;rounded=0;" edge="1" parent="1" target="Cl5lHqft_ITPor9AgNO_-16">
          <mxGeometry relative="1" as="geometry">
            <mxPoint x="660" y="148" as="sourcePoint" />
          </mxGeometry>
        </mxCell>
        <mxCell id="Cl5lHqft_ITPor9AgNO_-18" value="&lt;font style=&quot;font-size: 7px;&quot;&gt;extract&lt;/font&gt;" style="html=1;verticalAlign=bottom;endArrow=open;dashed=1;endSize=8;curved=0;rounded=0;" edge="1" parent="1" source="Cl5lHqft_ITPor9AgNO_-16">
          <mxGeometry relative="1" as="geometry">
            <mxPoint x="661" y="195" as="targetPoint" />
            <mxPoint x="601.5" y="196" as="sourcePoint" />
          </mxGeometry>
        </mxCell>
        <mxCell id="Cl5lHqft_ITPor9AgNO_-22" value="" style="html=1;whiteSpace=wrap;shape=isoCube2;backgroundOutline=1;isoAngle=15;" vertex="1" parent="1">
          <mxGeometry x="576" y="156.5" width="29" height="29" as="geometry" />
        </mxCell>
        <mxCell id="Cl5lHqft_ITPor9AgNO_-25" value="Data Store" style="text;html=1;align=center;verticalAlign=middle;whiteSpace=wrap;rounded=0;" vertex="1" parent="1">
          <mxGeometry x="670" y="167" width="52" height="24" as="geometry" />
        </mxCell>
        <mxCell id="Cl5lHqft_ITPor9AgNO_-26" value="User" style="text;html=1;align=center;verticalAlign=middle;whiteSpace=wrap;rounded=0;" vertex="1" parent="1">
          <mxGeometry x="467" y="165" width="60" height="30" as="geometry" />
        </mxCell>
        <mxCell id="Cl5lHqft_ITPor9AgNO_-31" value="&lt;span style=&quot;font-size: 24px; font-weight: 700; text-wrap: nowrap;&quot;&gt;Quantization&lt;/span&gt;" style="html=1;whiteSpace=wrap;shape=isoRectangle;rounded=1;whiteSpace=wrap;html=1;strokeWidth=2;fillWeight=4;hachureGap=8;hachureAngle=45;fillColor=#97D077;sketch=1;rotation=60;" vertex="1" parent="1">
          <mxGeometry x="331.5" y="401" width="345" height="207" as="geometry" />
        </mxCell>
        <mxCell id="Cl5lHqft_ITPor9AgNO_-30" value="&lt;span style=&quot;font-size: 24px; font-weight: 700; text-wrap: nowrap;&quot;&gt;Spider&lt;/span&gt;&lt;span style=&quot;text-wrap: nowrap; color: rgba(0, 0, 0, 0); font-family: monospace; font-size: 0px; text-align: start;&quot;&gt;%3CmxGraphModel%3E%3Croot%3E%3CmxCell%20id%3D%220%22%2F%3E%3CmxCell%20id%3D%221%22%20parent%3D%220%22%2F%3E%3CmxCell%20id%3D%222%22%20value%3D%22%22%20style%3D%22html%3D1%3BwhiteSpace%3Dwrap%3Baspect%3Dfixed%3Bshape%3DisoRectangle%3Brounded%3D1%3BwhiteSpace%3Dwrap%3Bhtml%3D1%3BstrokeWidth%3D2%3BfillWeight%3D4%3BhachureGap%3D8%3BhachureAngle%3D45%3BfillColor%3D%231ba1e2%3Bsketch%3D1%3B%22%20vertex%3D%221%22%20parent%3D%221%22%3E%3CmxGeometry%20x%3D%22381%22%20y%3D%22263%22%20width%3D%22115%22%20height%3D%2269%22%20as%3D%22geometry%22%2F%3E%3C%2FmxCell%3E%3C%2Froot%3E%3C%2FmxGraphModel%3E&lt;/span&gt;&lt;span style=&quot;text-wrap: nowrap; color: rgba(0, 0, 0, 0); font-family: monospace; font-size: 0px; text-align: start;&quot;&gt;%3CmxGraphModel%3E%3Croot%3E%3CmxCell%20id%3D%220%22%2F%3E%3CmxCell%20id%3D%221%22%20parent%3D%220%22%2F%3E%3CmxCell%20id%3D%222%22%20value%3D%22%22%20style%3D%22html%3D1%3BwhiteSpace%3Dwrap%3Baspect%3Dfixed%3Bshape%3DisoRectangle%3Brounded%3D1%3BwhiteSpace%3Dwrap%3Bhtml%3D1%3BstrokeWidth%3D2%3BfillWeight%3D4%3BhachureGap%3D8%3BhachureAngle%3D45%3BfillColor%3D%231ba1e2%3Bsketch%3D1%3B%22%20vertex%3D%221%22%20parent%3D%221%22%3E%3CmxGeometry%20x%3D%22381%22%20y%3D%22263%22%20width%3D%22115%22%20height%3D%2269%22%20as%3D%22geometry%22%2F%3E%3C%2FmxCell%3E%3C%2Froot%3E%3C%2FmxGraphModel%3E&lt;/span&gt;&lt;span style=&quot;text-wrap: nowrap; color: rgba(0, 0, 0, 0); font-family: monospace; font-size: 0px; text-align: start;&quot;&gt;%3CmxGraphModel%3E%3Croot%3E%3CmxCell%20id%3D%220%22%2F%3E%3CmxCell%20id%3D%221%22%20parent%3D%220%22%2F%3E%3CmxCell%20id%3D%222%22%20value%3D%22%22%20style%3D%22html%3D1%3BwhiteSpace%3Dwrap%3Baspect%3Dfixed%3Bshape%3DisoRectangle%3Brounded%3D1%3BwhiteSpace%3Dwrap%3Bhtml%3D1%3BstrokeWidth%3D2%3BfillWeight%3D4%3BhachureGap%3D8%3BhachureAngle%3D45%3BfillColor%3D%231ba1e2%3Bsketch%3D1%3B%22%20vertex%3D%221%22%20parent%3D%221%22%3E%3CmxGeometry%20x%3D%22381%22%20y%3D%22263%22%20width%3D%22115%22%20height%3D%2269%22%20as%3D%22geometry%22%2F%3E%3C%2FmxCell%3E%3C%2Froot%3E%3C%2FmxGraphModel%3E&lt;/span&gt;" style="html=1;whiteSpace=wrap;shape=isoRectangle;rounded=1;whiteSpace=wrap;html=1;strokeWidth=2;fillWeight=4;hachureGap=8;hachureAngle=45;fillColor=#1ba1e2;sketch=1;" vertex="1" parent="1">
          <mxGeometry x="417.5" y="252" width="345" height="207" as="geometry" />
        </mxCell>
        <mxCell id="Cl5lHqft_ITPor9AgNO_-32" value="&lt;span style=&quot;font-size: 24px; font-weight: 700; text-wrap: nowrap;&quot;&gt;Prompt&lt;/span&gt;" style="html=1;whiteSpace=wrap;shape=isoRectangle;rounded=1;whiteSpace=wrap;html=1;strokeWidth=2;fillWeight=4;hachureGap=8;hachureAngle=45;fillColor=#EA6B66;sketch=1;rotation=-60;" vertex="1" parent="1">
          <mxGeometry x="504.5" y="401" width="345" height="207" as="geometry" />
        </mxCell>
        <mxCell id="Cl5lHqft_ITPor9AgNO_-38" value="" style="shape=singleArrow;direction=south;whiteSpace=wrap;html=1;" vertex="1" parent="1">
          <mxGeometry x="581" y="189" width="20" height="63" as="geometry" />
        </mxCell>
        <mxCell id="Cl5lHqft_ITPor9AgNO_-39" value="" style="whiteSpace=wrap;html=1;shape=mxgraph.basic.cloud_callout;fillColor=#dae8fc;strokeColor=#6c8ebf;" vertex="1" parent="1">
          <mxGeometry x="722" y="174" width="277.5" height="187" as="geometry" />
        </mxCell>
        <mxCell id="Cl5lHqft_ITPor9AgNO_-37" value="&lt;b&gt;&lt;font color=&quot;#66b2ff&quot;&gt;The information of webpages can be collected by spider tech and be extracted important features for our analysis and following work.&lt;/font&gt;&lt;/b&gt;" style="text;html=1;align=center;verticalAlign=middle;whiteSpace=wrap;rounded=0;" vertex="1" parent="1">
          <mxGeometry x="749.75" y="241" width="222" height="30" as="geometry" />
        </mxCell>
        <mxCell id="Cl5lHqft_ITPor9AgNO_-41" value="" style="whiteSpace=wrap;html=1;shape=mxgraph.basic.cloud_callout;direction=west;fillColor=#d5e8d4;strokeColor=#82b366;" vertex="1" parent="1">
          <mxGeometry x="188" y="540" width="248" height="140" as="geometry" />
        </mxCell>
        <mxCell id="Cl5lHqft_ITPor9AgNO_-44" value="" style="whiteSpace=wrap;html=1;shape=mxgraph.basic.cloud_callout;rotation=90;fillColor=#f8cecc;strokeColor=#b85450;" vertex="1" parent="1">
          <mxGeometry x="849.32" y="397.06" width="89.13" height="318.75" as="geometry" />
        </mxCell>
        <mxCell id="Cl5lHqft_ITPor9AgNO_-45" value="&lt;div style=&quot;text-align: center;&quot;&gt;&lt;b style=&quot;&quot;&gt;&lt;font color=&quot;#ea6b66&quot;&gt;Prompt Engineering for the collaboration&amp;nbsp;between Fin-Tech and AI.&lt;/font&gt;&lt;/b&gt;&lt;/div&gt;" style="text;whiteSpace=wrap;html=1;" vertex="1" parent="1">
          <mxGeometry x="849.32" y="526" width="158" height="51" as="geometry" />
        </mxCell>
        <mxCell id="Cl5lHqft_ITPor9AgNO_-47" value="&lt;b style=&quot;forced-color-adjust: none; font-family: Helvetica; font-size: 12px; font-style: normal; font-variant-ligatures: normal; font-variant-caps: normal; letter-spacing: normal; orphans: 2; text-align: center; text-indent: 0px; text-transform: none; widows: 2; word-spacing: 0px; -webkit-text-stroke-width: 0px; white-space: normal; text-decoration-thickness: initial; text-decoration-style: initial; text-decoration-color: initial;&quot;&gt;&lt;font color=&quot;#00994d&quot; style=&quot;forced-color-adjust: none;&quot;&gt;Quantization can be used to analyze the data in a certain scope.&lt;/font&gt;&lt;/b&gt;" style="text;whiteSpace=wrap;html=1;" vertex="1" parent="1">
          <mxGeometry x="219" y="606" width="217" height="51" as="geometry" />
        </mxCell>
        <mxCell id="Cl5lHqft_ITPor9AgNO_-54" value="" style="shape=datastore;whiteSpace=wrap;html=1;" vertex="1" parent="1">
          <mxGeometry x="237" y="240.94" width="60" height="60" as="geometry" />
        </mxCell>
        <mxCell id="Cl5lHqft_ITPor9AgNO_-55" value="Data Store" style="text;html=1;align=center;verticalAlign=middle;whiteSpace=wrap;rounded=0;" vertex="1" parent="1">
          <mxGeometry x="241" y="266.94" width="52" height="24" as="geometry" />
        </mxCell>
        <mxCell id="Cl5lHqft_ITPor9AgNO_-59" value="" style="verticalLabelPosition=bottom;verticalAlign=top;html=1;shape=mxgraph.basic.layered_rect;dx=10;outlineConnect=0;whiteSpace=wrap;" vertex="1" parent="1">
          <mxGeometry x="110" y="152.94" width="100" height="60" as="geometry" />
        </mxCell>
        <mxCell id="Cl5lHqft_ITPor9AgNO_-60" value="Washing" style="shape=image;html=1;verticalLabelPosition=bottom;verticalAlign=top;imageAspect=1;aspect=fixed;image=img/clipart/Gear_128x128.png" vertex="1" parent="1">
          <mxGeometry x="249" y="167.44" width="28.13" height="33" as="geometry" />
        </mxCell>
        <mxCell id="Cl5lHqft_ITPor9AgNO_-62" value="" style="endArrow=classic;html=1;rounded=0;" edge="1" parent="1">
          <mxGeometry width="50" height="50" relative="1" as="geometry">
            <mxPoint x="210" y="190.94" as="sourcePoint" />
            <mxPoint x="260" y="240.94" as="targetPoint" />
          </mxGeometry>
        </mxCell>
        <mxCell id="Cl5lHqft_ITPor9AgNO_-63" value="Web Source" style="text;html=1;align=center;verticalAlign=middle;whiteSpace=wrap;rounded=0;" vertex="1" parent="1">
          <mxGeometry x="126" y="164.94" width="60" height="30" as="geometry" />
        </mxCell>
        <mxCell id="Cl5lHqft_ITPor9AgNO_-66" value="" style="verticalLabelPosition=bottom;verticalAlign=top;html=1;shape=mxgraph.basic.layered_rect;dx=10;outlineConnect=0;whiteSpace=wrap;" vertex="1" parent="1">
          <mxGeometry x="141" y="341" width="100" height="60" as="geometry" />
        </mxCell>
        <mxCell id="Cl5lHqft_ITPor9AgNO_-67" value="Local Data" style="text;html=1;align=center;verticalAlign=middle;whiteSpace=wrap;rounded=0;" vertex="1" parent="1">
          <mxGeometry x="156" y="352" width="60" height="30" as="geometry" />
        </mxCell>
        <mxCell id="Cl5lHqft_ITPor9AgNO_-68" value="" style="endArrow=classic;html=1;rounded=0;" edge="1" parent="1">
          <mxGeometry width="50" height="50" relative="1" as="geometry">
            <mxPoint x="212" y="340.94" as="sourcePoint" />
            <mxPoint x="252" y="300.94" as="targetPoint" />
          </mxGeometry>
        </mxCell>
        <mxCell id="Cl5lHqft_ITPor9AgNO_-69" value="&lt;span style=&quot;color: rgba(0, 0, 0, 0); font-family: monospace; font-size: 0px; text-align: start; text-wrap: nowrap;&quot;&gt;%3CmxGraphModel%3E%3Croot%3E%3CmxCell%20id%3D%220%22%2F%3E%3CmxCell%20id%3D%221%22%20parent%3D%220%22%2F%3E%3CmxCell%20id%3D%222%22%20value%3D%22Web%20Source%22%20style%3D%22text%3Bhtml%3D1%3Balign%3Dcenter%3BverticalAlign%3Dmiddle%3BwhiteSpace%3Dwrap%3Brounded%3D0%3B%22%20vertex%3D%221%22%20parent%3D%221%22%3E%3CmxGeometry%20x%3D%22155%22%20y%3D%22123%22%20width%3D%2260%22%20height%3D%2230%22%20as%3D%22geometry%22%2F%3E%3C%2FmxCell%3E%3C%2Froot%3E%3C%2FmxGraphModel%3E&lt;/span&gt;&lt;span style=&quot;color: rgba(0, 0, 0, 0); font-family: monospace; font-size: 0px; text-align: start; text-wrap: nowrap;&quot;&gt;%3CmxGraphModel%3E%3Croot%3E%3CmxCell%20id%3D%220%22%2F%3E%3CmxCell%20id%3D%221%22%20parent%3D%220%22%2F%3E%3CmxCell%20id%3D%222%22%20value%3D%22Web%20Source%22%20style%3D%22text%3Bhtml%3D1%3Balign%3Dcenter%3BverticalAlign%3Dmiddle%3BwhiteSpace%3Dwrap%3Brounded%3D0%3B%22%20vertex%3D%221%22%20parent%3D%221%22%3E%3CmxGeometry%20x%3D%22155%22%20y%3D%22123%22%20width%3D%2260%22%20height%3D%2230%22%20as%3D%22geometry%22%2F%3E%3C%2FmxCell%3E%3C%2Froot%3E%3C%2FmxGraphModel%3E&lt;/span&gt;" style="shape=actor;whiteSpace=wrap;html=1;" vertex="1" parent="1">
          <mxGeometry x="348" y="237.5" width="40" height="60" as="geometry" />
        </mxCell>
        <mxCell id="Cl5lHqft_ITPor9AgNO_-71" value="" style="endArrow=classic;html=1;rounded=0;" edge="1" parent="1">
          <mxGeometry width="50" height="50" relative="1" as="geometry">
            <mxPoint x="339" y="284.5" as="sourcePoint" />
            <mxPoint x="303" y="284.5" as="targetPoint" />
          </mxGeometry>
        </mxCell>
        <mxCell id="Cl5lHqft_ITPor9AgNO_-72" value="User Inputs" style="text;html=1;align=center;verticalAlign=middle;whiteSpace=wrap;rounded=0;" vertex="1" parent="1">
          <mxGeometry x="338" y="267.5" width="60" height="30" as="geometry" />
        </mxCell>
      </root>
    </mxGraphModel>
  </diagram>
</mxfile>
